# xmcd
#
# Track frame offsets:
#	150
#	23522
#	40230
#	58012
#	76192
#	94725
#	110454
#	126727
#	145927
#	166455
#	184352
#
# Disc length: 2687 seconds
#
# Revision: 1
# Processed by: cddbd v1.5.1PL0 Copyright (c) Steve Scherf et al.
# Submitted via: CDex 1.50Beta5
#
DISCID=950a7d0b
DTITLE=松原みき - Pocket Park
DYEAR=1996
DGENRE=
TTITLE0=真夜中のドア
TTITLE1=It’s So Creamy
TTITLE2=Cryin’
TTITLE3=That’s All
TTITLE4=His Woman
TTITLE5=Manhattan Wind
TTITLE6=愛はエネルギー
TTITLE7=そうして私が
TTITLE8=Trouble Maker
TTITLE9=Mind Game
TTITLE10=偽りのない日々
EXTD=
EXTT0=
EXTT1=
EXTT2=
EXTT3=
EXTT4=
EXTT5=
EXTT6=
EXTT7=
EXTT8=
EXTT9=
EXTT10=
PLAYORDER=
